<svg id="color" enable-background="new 0 0 24 24" height="512" viewBox="0 0 24 24" width="512" xmlns="http://www.w3.org/2000/svg"><path d="m13.25 0h-10.5c-1.52 0-2.75 1.23-2.75 2.75v15.5c0 1.52 1.23 2.75 2.75 2.75h7.56c-.52-1.06-.81-2.25-.81-3.5 0-1.04.2-2.04.57-2.95.58-1.46 1.57-2.7 2.84-3.59.91-.64 1.96-1.1 3.09-1.32v-6.89c0-1.52-1.23-2.75-2.75-2.75z" fill="#eceff1"/><path d="m8 0h-5.25c-1.52 0-2.75 1.23-2.75 2.75v15.5c0 1.52 1.23 2.75 2.75 2.75h5.25z" fill="#cdd0d2"/><path d="m17.5 24c-3.584 0-6.5-2.916-6.5-6.5s2.916-6.5 6.5-6.5 6.5 2.916 6.5 6.5-2.916 6.5-6.5 6.5z" fill="#f44336"/><path d="m15.75 20c-.192 0-.384-.073-.53-.22-.293-.293-.293-.768 0-1.061l3.5-3.5c.293-.293.768-.293 1.061 0s.293.768 0 1.061l-3.5 3.5c-.147.147-.339.22-.531.22z" fill="#fff"/><path d="m19.25 20c-.192 0-.384-.073-.53-.22l-3.5-3.5c-.293-.293-.293-.768 0-1.061s.768-.293 1.061 0l3.5 3.5c.293.293.293.768 0 1.061-.147.147-.339.22-.531.22z" fill="#fff"/><path d="m13 10c0 .33-.03.65-.09.96-1.27.89-2.26 2.13-2.84 3.59-.63.29-1.33.45-2.07.45-1.38 0-2.63-.56-3.53-1.47l3.53-3.53v-5c2.76 0 5 2.24 5 5z" fill="#2196f3"/><path d="m13 10c0 .33-.03.65-.09.96-1.27.89-2.26 2.13-2.84 3.59-.63.29-1.33.45-2.07.45-1.38 0-2.63-.56-3.53-1.47l3.53-3.53z" fill="#1d83d4"/><path d="m8 5v5l-3.533 3.533c-.909-.9-1.467-2.15-1.467-3.533 0-2.758 2.242-5 5-5z" fill="#ffc107"/><path d="m8 10h-5c0 1.384.559 2.634 1.467 3.533z" fill="#dea806"/><path d="m17.5 11c-3.584 0-6.5 2.916-6.5 6.5s2.916 6.5 6.5 6.5v-5.439l-1.22 1.22c-.146.146-.338.219-.53.219s-.384-.073-.53-.22c-.293-.293-.293-.768 0-1.061l1.22-1.22-1.22-1.22c-.293-.293-.293-.768 0-1.061.146-.146.338-.22.53-.22s.384.073.53.22l1.22 1.22z" fill="#d43a2f"/><g fill="#dedede"><path d="m16.439 17.5-1.22 1.22c-.293.293-.293.768 0 1.061.146.146.338.22.53.22s.384-.073.53-.22l1.22-1.22z"/><path d="m15.75 15c-.192 0-.384.073-.53.22-.293.293-.293.768 0 1.061l1.22 1.22 1.061 1.061v-2.121l-1.22-1.22c-.147-.148-.339-.221-.531-.221z"/></g></svg>