<svg id="Capa_1" enable-background="new 0 0 497 497" height="512" viewBox="0 0 497 497" width="512" xmlns="http://www.w3.org/2000/svg"><g><path d="m386.046 144.047v263.953c0 22.091-17.909 40-40 40h-275c-22.091 0-40-17.909-40-40v-368c0-22.091 17.909-40 40-40h171.197c4.547 0 8.987 1.032 13.007 2.966 3.025 1.455 126.621 125.409 128.09 128.629 1.767 3.873 2.706 8.114 2.706 12.452z" fill="#f9f8f9"/><path d="m386.046 144.05v7.59h-104.32c-25.94 0-47.04-21.13-47.04-47.1v-104.54h7.56c7.96 0 15.6 3.17 21.23 8.81l113.81 114.05c5.61 5.62 8.76 13.24 8.76 21.19z" fill="#f9f8f9"/><path d="m101.046 448h-30c-22.09 0-40-17.91-40-40v-368c0-22.09 17.91-40 40-40h30c-22.09 0-40 17.91-40 40v368c0 22.09 17.91 40 40 40z" fill="#e3e0e4"/><g fill="#a29aa5"><path d="m212.154 150h-123.7c-4.142 0-7.5-3.358-7.5-7.5s3.358-7.5 7.5-7.5h123.7c4.142 0 7.5 3.358 7.5 7.5s-3.358 7.5-7.5 7.5z"/><path d="m212.154 330h-123.7c-4.142 0-7.5-3.358-7.5-7.5s3.358-7.5 7.5-7.5h123.7c4.142 0 7.5 3.358 7.5 7.5s-3.358 7.5-7.5 7.5z"/><path d="m310.454 210h-224c-4.142 0-7.5-3.358-7.5-7.5s3.358-7.5 7.5-7.5h224c4.142 0 7.5 3.358 7.5 7.5s-3.358 7.5-7.5 7.5z"/><path d="m310.454 270h-224c-4.142 0-7.5-3.358-7.5-7.5s3.358-7.5 7.5-7.5h224c4.142 0 7.5 3.358 7.5 7.5s-3.358 7.5-7.5 7.5z"/></g><circle cx="364.454" cy="395.5" fill="#80e29e" r="101.5"/><path d="m445.526 456.57c-18.52 24.56-47.94 40.43-81.07 40.43-56.06 0-101.5-45.44-101.5-101.5 0-33.13 15.87-62.55 40.43-81.08-12.83 16.99-20.43 38.15-20.43 61.08 0 56.06 45.44 101.5 101.5 101.5 22.93 0 44.08-7.6 61.07-20.43z" fill="#77d192"/><path d="m357.204 433.5c-3.839 0-7.678-1.464-10.606-4.394l-31.5-31.5c-5.858-5.858-5.858-15.355 0-21.213 5.857-5.858 15.355-5.858 21.213 0l20.894 20.893 35.394-35.393c5.857-5.858 15.355-5.858 21.213 0s5.858 15.355 0 21.213l-46 46c-2.93 2.93-6.769 4.394-10.608 4.394z" fill="#f9f8f9"/><path d="m386.046 144.05v17.59h-104.32c-31.45 0-57.04-25.62-57.04-57.1v-104.54h17.56c4.344 0 8.593.944 12.472 2.719 3.228 1.477 127.222 125.755 128.696 129.037 1.719 3.829 2.632 8.014 2.632 12.294z" fill="#e3e0e4"/><path d="m383.356 131.64h-101.63c-14.93 0-27.04-12.14-27.04-27.1v-101.82c3.24 1.46 6.23 3.52 8.79 6.09l113.81 114.05c2.55 2.56 4.61 5.54 6.07 8.78z" fill="#a29aa5"/></g></svg>