<?xml version="1.0" encoding="iso-8859-1"?>
<!-- Generator: Adobe Illustrator 19.0.0, SVG Export Plug-In . SVG Version: 6.00 Build 0)  -->
<svg version="1.1" id="Capa_1" xmlns="http://www.w3.org/2000/svg" xmlns:xlink="http://www.w3.org/1999/xlink" x="0px" y="0px"
	 viewBox="0 0 512 512" style="enable-background:new 0 0 512 512;" xml:space="preserve">
<path style="fill:#FF281D;" d="M498.8,115.499L395.501,13.2C386.8,4.799,375.7,0,363.701,0H45C20.099,0,0,20.099,0,45v422
	c0,24.899,20.099,45,45,45h422c24.901,0,45-20.101,45-45V147.299C512,135.3,507.201,124.2,498.8,115.499z"/>
<path style="fill:#B80000;" d="M512,147.299V467c0,24.899-20.099,45-45,45H256V0h107.701c11.999,0,23.099,4.799,31.8,13.2
	L498.8,115.499C507.201,124.2,512,135.3,512,147.299z"/>
<path style="fill:#E1F1FA;" d="M91,0v135c0,24.899,20.099,45,45,45h180c24.901,0,45-20.101,45-45V0H91z"/>
<path style="fill:#2864F0;" d="M421,286v15l-23.699,30h-255L91,301v-15c0-24.901,20.099-45,45-45h240
	C400.901,241,421,261.099,421,286z"/>
<path style="fill:#0053BF;" d="M421,286v15l-23.699,30H256v-90h120C400.901,241,421,261.099,421,286z"/>
<path style="fill:#BFE1FF;" d="M316,180h-60V0h105v135C361,159.899,340.901,180,316,180z"/>
<path style="fill:#E1F1FA;" d="M91,301v211h330V301H91z"/>
<rect x="256" y="301" style="fill:#BFE1FF;" width="165" height="211"/>
<path style="fill:#0053BF;" d="M211,0v105c0,8.399,6.599,15,15,15h60c8.401,0,15-6.601,15-15V0H211z"/>
<path style="fill:#05377F;" d="M286,120h-30V0h45v105C301,113.399,294.401,120,286,120z"/>
<g>
	<path style="fill:#0053BF;" d="M361,376c0,8.399-6.599,15-15,15H166c-8.401,0-15-6.601-15-15c0-8.401,6.599-15,15-15h180
		C354.401,361,361,367.599,361,376z"/>
	<path style="fill:#0053BF;" d="M331,437c0,8.399-6.599,15-15,15H196c-8.401,0-15-6.601-15-15c0-8.401,6.599-15,15-15h120
		C324.401,422,331,428.599,331,437z"/>
</g>
<g>
	<path style="fill:#05377F;" d="M331,437c0,8.399-6.599,15-15,15h-60v-30h60C324.401,422,331,428.599,331,437z"/>
	<path style="fill:#05377F;" d="M361,376c0,8.399-6.599,15-15,15h-90v-30h90C354.401,361,361,367.599,361,376z"/>
</g>
<g>
</g>
<g>
</g>
<g>
</g>
<g>
</g>
<g>
</g>
<g>
</g>
<g>
</g>
<g>
</g>
<g>
</g>
<g>
</g>
<g>
</g>
<g>
</g>
<g>
</g>
<g>
</g>
<g>
</g>
</svg>
