<svg height="512" viewBox="0 0 64 64" width="512" xmlns="http://www.w3.org/2000/svg"><path d="m7 18h50v42h-50z" fill="#d0d8da"/><path d="m57 18h-50v42h50v-3h-31a9 9 0 0 1 -9-9h40v-5h-31a9 9 0 0 1 -9-9h40v-5h-31a9 9 0 0 1 -9-9h40z" fill="#93999a"/><path d="m27 40v6" fill="#57b7eb"/><path d="m37 40v6" fill="#57b7eb"/><path d="m42 40v6" fill="#57b7eb"/><path d="m12 40v6" fill="#57b7eb"/><path d="m22 40v6" fill="#57b7eb"/><path d="m27 36h10v10h-10z" fill="#57b7eb"/><path d="m12 36h10v10h-10z" fill="#57b7eb"/><path d="m12 46h10v-3.947a9 9 0 0 1 -4.769-6.053h-5.231z" fill="#4891d3"/><g fill="#57b7eb"><path d="m52 40v6"/><path d="m42 36h10v10h-10z"/><path d="m27 26v6"/><path d="m37 26v6"/><path d="m42 26v6"/><path d="m12 26v6"/><path d="m22 26v6"/><path d="m27 22h10v10h-10z"/><path d="m12 22h10v10h-10z"/></g><path d="m12 32h10v-3.947a9 9 0 0 1 -4.769-6.053h-5.231z" fill="#4891d3"/><path d="m52 26v6" fill="#57b7eb"/><path d="m42 22h10v10h-10z" fill="#57b7eb"/><path d="m5 14h54v4h-54z" fill="#fcbc04"/><path d="m23 50h18v10h-18z" fill="#4891d3"/><path d="m46 50h6v6h-6z" fill="#57b7eb"/><path d="m12 50h6v6h-6z" fill="#57b7eb"/><path d="m12 56h6v-3.889a8.95 8.95 0 0 1 -.769-2.111h-5.231z" fill="#4891d3"/><path d="m18 3h28v11h-28z" fill="#d0d8da"/><path d="m23 3h-5v11h28v-3h-15a8 8 0 0 1 -8-8z" fill="#93999a"/><path d="m46 10h6v4h-6z" fill="#fcbc04"/><path d="m12 10h6v4h-6z" fill="#fcbc04"/><path d="m22 7h20v7h-20z" fill="#4891d3"/><path d="m31 11a7.991 7.991 0 0 1 -6.921-4h-2.079v7h20v-3z" fill="#2d72bc"/><path d="m32 7-10 7h10l10-7z" fill="#57b7eb"/><path d="m31 11a7.914 7.914 0 0 1 -3.521-.836l-5.479 3.836h10l4.286-3z" fill="#4891d3"/><path d="m27 36 10 10h-10z" fill="#4891d3"/><path d="m12 36 10 10h-10z" fill="#2d72bc"/><path d="m42 36 10 10h-10z" fill="#4891d3"/><path d="m27 22 10 10h-10z" fill="#4891d3"/><path d="m12 22 10 10h-10z" fill="#2d72bc"/><path d="m42 22 10 10h-10z" fill="#4891d3"/><path d="m52 56h-6v-6z" fill="#4891d3"/><path d="m18 56h-6v-6z" fill="#2d72bc"/><path d="m23 50 9 10h9l-9-10z" fill="#57b7eb"/><path d="m27 43h10v3h-10z" fill="#4891d3"/><path d="m42 43h10v3h-10z" fill="#4891d3"/><path d="m27 29h10v3h-10z" fill="#4891d3"/><path d="m42 29h10v3h-10z" fill="#4891d3"/><path d="m41 60v-3h-15a8.956 8.956 0 0 1 -3-.523v3.523z" fill="#4891d3"/><path d="m26 57a8.956 8.956 0 0 1 -3-.523v3.523h9l-2.7-3z" fill="#2d72bc"/><path d="m41 60v-3h-2.7z" fill="#2d72bc"/><path d="m27 43v3h10l-3-3z" fill="#2d72bc"/><path d="m42 43v3h10l-3-3z" fill="#2d72bc"/><path d="m27 29v3h10l-3-3z" fill="#2d72bc"/><path d="m42 29v3h10l-3-3z" fill="#2d72bc"/><path d="m8 14h51a0 0 0 0 1 0 0v2a0 0 0 0 1 0 0h-49a2 2 0 0 1 -2-2 0 0 0 0 1 0 0z" fill="#f9e109"/><path d="m48 10h4a0 0 0 0 1 0 0v3a0 0 0 0 1 0 0h-1a3 3 0 0 1 -3-3 0 0 0 0 1 0 0z" fill="#f9e109"/><path d="m14 10h4a0 0 0 0 1 0 0v3a0 0 0 0 1 0 0h-1a3 3 0 0 1 -3-3 0 0 0 0 1 0 0z" fill="#f9e109"/><path d="m57 39h-50a1 1 0 0 0 -1 1v6a1 1 0 0 0 2 0v-5h3v5a1 1 0 0 0 2 0v-5h3v5a1 1 0 0 0 2 0v-5h3v5a1 1 0 0 0 2 0v-5h3v5a1 1 0 0 0 2 0v-5h3v5a1 1 0 0 0 2 0v-5h3v5a1 1 0 0 0 2 0v-5h3v5a1 1 0 0 0 2 0v-5h3v5a1 1 0 0 0 2 0v-5h3v5a1 1 0 0 0 2 0v-5h3v5a1 1 0 0 0 2 0v-6a1 1 0 0 0 -1-1z" fill="#e59730"/><path d="m57 25h-50a1 1 0 0 0 -1 1v6a1 1 0 0 0 2 0v-5h3v5a1 1 0 0 0 2 0v-5h3v5a1 1 0 0 0 2 0v-5h3v5a1 1 0 0 0 2 0v-5h3v5a1 1 0 0 0 2 0v-5h3v5a1 1 0 0 0 2 0v-5h3v5a1 1 0 0 0 2 0v-5h3v5a1 1 0 0 0 2 0v-5h3v5a1 1 0 0 0 2 0v-5h3v5a1 1 0 0 0 2 0v-5h3v5a1 1 0 0 0 2 0v-6a1 1 0 0 0 -1-1z" fill="#e59730"/><path d="m31 50h2v10h-2z" fill="#d0d8da"/><path d="m59 33h-54a1 1 0 0 1 0-2h54a1 1 0 0 1 0 2z" fill="#fcbc04"/><path d="m59 47h-54a1 1 0 0 1 0-2h54a1 1 0 0 1 0 2z" fill="#fcbc04"/><path d="m31 57h2v3h-2z" fill="#93999a"/></svg>