<?xml version="1.0"?>
<svg xmlns="http://www.w3.org/2000/svg" id="Layer_1" data-name="Layer 1" viewBox="0 0 512 512" width="512" height="512"><path d="M309.818,413.107l-10.5-15.206A40.487,40.487,0,0,0,266,380.408a1.044,1.044,0,0,0-.949,1.472l1.012,2.263a211.811,211.811,0,0,1,11.882,34.142l12.707,49.933A31.887,31.887,0,0,0,321.356,491h83.659A32.131,32.131,0,0,0,437.1,458.9V391.178a10.761,10.761,0,1,0-21.521,0v20.371a5,5,0,0,1-10,0V381.774a10.63,10.63,0,0,0-21.031-2.208v25.76a5,5,0,0,1-5,5c-.04,0-.077-.011-.117-.012s-.077.012-.117.012a5,5,0,0,1-5-5V381.774a20.606,20.606,0,0,1,.234-2.936v-7.023a9.95,9.95,0,1,0-19.9,0v33.511a5,5,0,0,1-10,0V380.641a4.927,4.927,0,0,1-.256-1.5V272.629a12.286,12.286,0,1,0-24.572,0V435.7a5,5,0,0,1-10,0v-22.6Z"/><path d="M122.833,47.439a12,12,0,1,0,12,12A12.013,12.013,0,0,0,122.833,47.439Z"/><path d="M23,396.236a16.653,16.653,0,0,0,16.636,16.631l226.9,1.6a201.742,201.742,0,0,0-9.6-26.245l-1.012-2.263A11.045,11.045,0,0,1,266,370.408a50.485,50.485,0,0,1,41.549,21.812l2.265,3.282V272.629a22.286,22.286,0,1,1,44.572,0V354.7a19.869,19.869,0,0,1,28.856,10.094,20.578,20.578,0,0,1,30.938,9.585,20.721,20.721,0,0,1,32.914,16.8v23.06l24.993-1.364c.091,0,.182-.007.273-.007A16.653,16.653,0,0,0,489,396.236V109.381H23ZM151.2,289.912l-30.548,36.711-.2.193a8.524,8.524,0,0,1-11.389.505l-11.04-8.932a5,5,0,1,1,6.29-7.774l9.951,8.052,29.25-35.151a5,5,0,1,1,7.686,6.4Zm290.9,10.739H393.352a5,5,0,0,1,0-10H442.1a5,5,0,0,1,0,10ZM207.975,163.482H442.1a5,5,0,0,1,0,10H207.975a5,5,0,0,1,0-10Zm0,49.712H442.1a5,5,0,0,1,0,10H207.975a5,5,0,0,1,0-10Zm0,77.457h76.039a5,5,0,0,1,0,10H207.975a5,5,0,1,1,0-10Zm0,49.711h20.493a5,5,0,1,1,0,10H207.975a5,5,0,1,1,0-10ZM143.516,156.347a5,5,0,0,1,7.686,6.4l-30.548,36.712-.2.193a8.524,8.524,0,0,1-11.389.5l-11.04-8.932a5,5,0,0,1,6.29-7.774l9.951,8.051ZM72.332,167.04a7.75,7.75,0,0,1,7.743-7.74h28.712a5,5,0,0,1,0,10H82.332v52.831h52.911V204.976a5,5,0,0,1,10,0v19.415a7.751,7.751,0,0,1-7.743,7.74H80.075a7.75,7.75,0,0,1-7.743-7.74Zm0,127.168a7.75,7.75,0,0,1,7.743-7.74h28.712a5,5,0,0,1,0,10H82.332V349.3h52.911V332.145a5,5,0,0,1,10,0v19.414a7.75,7.75,0,0,1-7.743,7.74H80.075a7.75,7.75,0,0,1-7.743-7.74Z"/><path d="M62.2,47.439a12,12,0,1,0,12,12A12.012,12.012,0,0,0,62.2,47.439Z"/><path d="M183.467,47.439a12,12,0,1,0,12,12A12.012,12.012,0,0,0,183.467,47.439Z"/><path d="M472.364,21H39.636A16.653,16.653,0,0,0,23,37.632V99.381H489V37.632A16.653,16.653,0,0,0,472.364,21ZM62.2,81.432a22,22,0,1,1,22-22A22.023,22.023,0,0,1,62.2,81.432Zm60.633,0a22,22,0,1,1,22-22A22.024,22.024,0,0,1,122.833,81.432Zm60.634,0a22,22,0,1,1,22-22A22.023,22.023,0,0,1,183.467,81.432ZM467.933,63.3H273a5,5,0,0,1,0-10H467.933a5,5,0,0,1,0,10Z"/></svg>
