<?xml version="1.0" encoding="iso-8859-1"?>
<!-- Generator: Adobe Illustrator 19.0.0, SVG Export Plug-In . SVG Version: 6.00 Build 0)  -->
<svg version="1.1" id="Capa_1" xmlns="http://www.w3.org/2000/svg" xmlns:xlink="http://www.w3.org/1999/xlink" x="0px" y="0px"
	 viewBox="0 0 464 464" style="enable-background:new 0 0 464 464;" xml:space="preserve">
<path style="fill:#E15D2D;" d="M288,200v144H128v-32h128V184l-40-25v-38.8c18.9,1.8,38.3,7.9,51,20.6c12.6,12.6,21,30.2,20.6,50.9
	c0.2,1.3,0.2,2.5,0.3,3.8C288,197,288,198.5,288,200z"/>
<path style="fill:#F88756;" d="M464,200v144H288V200c0-1.5,0-3-0.1-4.5c-0.1-1.3-0.2-2.5-0.3-3.8c-3.2-40.7-30.8-68.2-71.6-71.4V120
	h168C428.2,120,464,155.8,464,200z"/>
<path d="M128,272c-1.4,0-2.9-0.4-4.2-1.2l-25.6-16c-2.4-1.5-3.8-4.1-3.8-6.9s1.5-5.4,3.9-6.8c2.6-1.6,6.1-1.7,8.6,0l25.4,16.1
	c3.7,2.4,4.8,7.3,2.5,11C133.2,270.7,130.6,272,128,272z"/>
<polygon style="fill:#2E5166;" points="256,184 216,159 216,208 153.4,247.9 153.6,248 "/>
<path d="M128,272c-2.7,0-5.3-1.3-6.8-3.7c-2.4-3.7-1.2-8.6,2.5-11l25.4-16.1c2.6-1.6,5.8-1.7,8.4-0.1l0.2,0.1c2.4,1.4,3.9,4,3.9,6.8
	s-1.4,5.4-3.8,6.9l-25.6,16C130.9,271.6,129.5,272,128,272z"/>
<polygon style="fill:#2E5166;" points="102.6,247.9 40,208 40,159 0,184 102.4,248 "/>
<g>
	<polygon style="fill:#3F708D;" points="153.6,248 256,312 256,184 	"/>
	<polygon style="fill:#3F708D;" points="0,184 0,312 102.4,248 	"/>
</g>
<polygon style="fill:#2E5166;" points="128,264 102.4,248 0,312 256,312 153.6,248 "/>
<path style="fill:#E0A700;" d="M368,248c0-16.4,9.9-30.4,24-36.6c-4.9-2.1-10.3-3.4-16-3.4c-22.1,0-40,17.9-40,40s17.9,40,40,40
	c5.7,0,11.1-1.2,16-3.4C377.9,278.4,368,264.4,368,248z"/>
<ellipse style="fill:#FFBE00;" cx="392" cy="248" rx="24" ry="36.6"/>
<rect x="368" style="fill:#2E5166;" width="16" height="208"/>
<polygon style="fill:#FFBE00;" points="320,0 376,56 376,0 "/>
<rect x="264" y="344" style="fill:#2E5166;" width="48" height="120"/>
<polygon style="fill:#E3DCD9;" points="40,48 40,208 128,264 216,208 216,48 "/>
<polygon style="fill:#FFBE00;" points="126,80 137.8,103.8 164.1,107.6 145.1,126.2 149.6,152.4 126,140 102.5,152.4 107,126.2 
	88,107.6 114.3,103.8 "/>
<g>
	<rect x="96" y="176" style="fill:#E15D2D;" width="56" height="16"/>
	<rect x="96" y="208" style="fill:#E15D2D;" width="56" height="16"/>
</g>
<g>
</g>
<g>
</g>
<g>
</g>
<g>
</g>
<g>
</g>
<g>
</g>
<g>
</g>
<g>
</g>
<g>
</g>
<g>
</g>
<g>
</g>
<g>
</g>
<g>
</g>
<g>
</g>
<g>
</g>
</svg>
