<svg height="512" viewBox="0 0 512 512" width="512" xmlns="http://www.w3.org/2000/svg"><g id="Solid"><path d="m72 240h32v32h-32z"/><path d="m264 408a8 8 0 0 1 -8 8h-48a8 8 0 0 1 -8-8v-40h-32v112h128v-112h-32zm16 56h-16v-16h16z"/><path d="m216 368h32v32h-32z"/><path d="m120 280a8 8 0 0 1 -8 8h-48a8 8 0 0 1 -8-8v-40h-32v112h128v-112h-32zm16 56h-16v-16h16z"/><path d="m168 352h136a8 8 0 0 1 8 8v120h72v-176h-216z"/><path d="m120 408a8 8 0 0 1 -8 8h-48a8 8 0 0 1 -8-8v-40h-32v112h128v-112h-32zm16 56h-16v-16h16z"/><path d="m72 368h32v32h-32z"/><path d="m224 112a8.009 8.009 0 0 0 8 8h32a8 8 0 0 0 0-16h-32a8.009 8.009 0 0 0 -8 8z"/><path d="m112 176h272v16h-272z"/><path d="m48 104.505v119.495h48v-56a8 8 0 0 1 8-8h288a8 8 0 0 1 8 8v312h48v-375.495l-200-48.276zm240 7.495a24.028 24.028 0 0 1 -24 24h-32a24 24 0 0 1 0-48h32a24.028 24.028 0 0 1 24 24z"/><path d="m168 272h216v16h-216z"/><path d="m248 24.229-224 54.071v15.54l222.123-53.616a7.976 7.976 0 0 1 3.754 0l222.123 53.615v-15.539z"/><path d="m168 240h216v16h-216z"/><path d="m112 224h48 224v-16h-272z"/></g></svg>