<?xml version="1.0" encoding="iso-8859-1"?>
<!-- Generator: Adobe Illustrator 19.0.0, SVG Export Plug-In . SVG Version: 6.00 Build 0)  -->
<svg version="1.1" id="Capa_1" xmlns="http://www.w3.org/2000/svg" xmlns:xlink="http://www.w3.org/1999/xlink" x="0px" y="0px"
	 viewBox="0 0 512 512" style="enable-background:new 0 0 512 512;" xml:space="preserve">
<g>
	<g>
		<path d="M172.308,137.938V36.923c0-8.157-6.613-14.769-14.769-14.769h-39.385c-3.918,0-7.673,1.556-10.443,4.326
			c-2.771,2.769-4.326,6.525-4.326,10.443l0.001,101.014c-5.73,4.743-10.374,10.603-13.72,17.14h96.36
			C182.681,148.541,178.038,142.681,172.308,137.938z"/>
	</g>
</g>
<g>
	<g>
		<path d="M408.615,137.938V36.923c0-8.157-6.613-14.769-14.769-14.769h-39.385c-3.918,0-7.673,1.556-10.443,4.326
			c-2.771,2.769-4.326,6.525-4.326,10.443l0.001,101.014c-5.73,4.743-10.374,10.603-13.72,17.14h96.36
			C418.988,148.541,414.346,142.681,408.615,137.938z"/>
	</g>
</g>
<g>
	<g>
		<path d="M497.231,184.615H14.769C6.613,184.615,0,191.228,0,199.385v275.692c0,8.157,6.613,14.769,14.769,14.769h482.462
			c8.157,0,14.769-6.613,14.769-14.769V199.385C512,191.228,505.387,184.615,497.231,184.615z M142.769,322.462
			c8.157,0,14.769,6.613,14.769,14.769S150.926,352,142.769,352H98.462v29.538h54.154c8.157,0,14.769,6.613,14.769,14.769
			s-6.613,14.769-14.769,14.769H83.692c-8.157,0-14.769-6.613-14.769-14.769V278.154c0-8.157,6.613-14.769,14.769-14.769h68.923
			c8.157,0,14.769,6.613,14.769,14.769s-6.613,14.769-14.769,14.769H98.462v29.538H142.769z M268.366,409.065
			c-2.339,1.365-4.901,2.015-7.428,2.015c-5.082,0-10.026-2.624-12.771-7.33l-21.705-37.208l-21.704,37.208
			c-2.745,4.705-7.69,7.33-12.771,7.33c-2.526,0-5.088-0.65-7.428-2.015c-7.046-4.111-9.426-13.153-5.315-20.199l30.12-51.635
			l-30.12-51.635c-4.11-7.045-1.73-16.089,5.315-20.199c7.046-4.109,16.089-1.73,20.199,5.316l21.704,37.208l21.704-37.208
			c4.11-7.046,13.151-9.425,20.199-5.316c7.046,4.111,9.426,13.154,5.315,20.199l-30.12,51.635l30.121,51.635
			C277.791,395.911,275.411,404.955,268.366,409.065z M324.923,395.323c0,8.157-6.613,14.769-14.769,14.769
			s-14.769-6.613-14.769-14.769V278.154c0-8.157,6.613-14.769,14.769-14.769s14.769,6.613,14.769,14.769V395.323z M428.308,292.923
			h-19.692v103.385c0,8.157-6.613,14.769-14.769,14.769s-14.769-6.613-14.769-14.769V292.923h-19.692
			c-8.157,0-14.769-6.613-14.769-14.769s6.613-14.769,14.769-14.769h68.923c8.157,0,14.769,6.613,14.769,14.769
			S436.464,292.923,428.308,292.923z"/>
	</g>
</g>
<g>
</g>
<g>
</g>
<g>
</g>
<g>
</g>
<g>
</g>
<g>
</g>
<g>
</g>
<g>
</g>
<g>
</g>
<g>
</g>
<g>
</g>
<g>
</g>
<g>
</g>
<g>
</g>
<g>
</g>
</svg>
