<?xml version="1.0" encoding="iso-8859-1"?>
<!-- Generator: Adobe Illustrator 21.0.0, SVG Export Plug-In . SVG Version: 6.00 Build 0)  -->
<svg xmlns="http://www.w3.org/2000/svg" xmlns:xlink="http://www.w3.org/1999/xlink" version="1.1" id="Capa_1" x="0px" y="0px" viewBox="0 0 512 512" style="enable-background:new 0 0 512 512;" xml:space="preserve" width="512" height="512">
<g>
	<g>
		<path style="fill:#FBE4A5;" d="M479.61,464V8c0-4.418-3.582-8-8-8H87.728c-4.418,0-8,3.582-8,8v504H431.61    C458.12,512,479.61,490.51,479.61,464z"/>
		<path style="fill:#F8C94A;" d="M135.61,0H87.728c-4.418,0-8,3.582-8,8v504h47.882V8C127.61,3.582,131.192,0,135.61,0z"/>
		<g>
			<path style="fill:#FAD677;" d="M376.182,464H40.411c-5.008,0-8.849,4.563-7.866,9.473C36.943,495.446,56.343,512,79.61,512h352     c-24.204,0-44.223-17.914-47.523-41.207C383.533,466.88,380.134,464,376.182,464z"/>
		</g>
		<path style="fill:#FAD677;" d="M423.61,48h-288c-4.418,0-8,3.582-8,8v64c0,4.418,3.582,8,8,8h288c4.418,0,8-3.582,8-8V56    C431.61,51.582,428.028,48,423.61,48z"/>
		<g>
			<path style="fill:#FDF1D2;" d="M183.61,184h-48c-4.418,0-8-3.582-8-8s3.582-8,8-8h48c4.418,0,8,3.582,8,8S188.028,184,183.61,184     z"/>
			<path style="fill:#FDF1D2;" d="M423.61,184h-200c-4.418,0-8-3.582-8-8s3.582-8,8-8h200c4.418,0,8,3.582,8,8     S428.028,184,423.61,184z"/>
			<path style="fill:#FDF1D2;" d="M223.61,216h-88c-4.418,0-8-3.582-8-8s3.582-8,8-8h88c4.418,0,8,3.582,8,8S228.028,216,223.61,216     z"/>
			<path style="fill:#FDF1D2;" d="M423.61,216h-168c-4.418,0-8-3.582-8-8s3.582-8,8-8h168c4.418,0,8,3.582,8,8     S428.028,216,423.61,216z"/>
			<path style="fill:#FDF1D2;" d="M191.61,424h-56c-4.418,0-8-3.582-8-8s3.582-8,8-8h56c4.418,0,8,3.582,8,8S196.028,424,191.61,424     z"/>
			<path style="fill:#FDF1D2;" d="M423.61,424h-200c-4.418,0-8-3.582-8-8s3.582-8,8-8h200c4.418,0,8,3.582,8,8     S428.028,424,423.61,424z"/>
		</g>
	</g>
	<path style="fill:#EE9F54;" d="M191.61,304h-16c-8.822,0-16-7.178-16-16s7.178-16,16-16h40c4.418,0,8-3.582,8-8s-3.582-8-8-8h-24   v-8c0-4.418-3.582-8-8-8s-8,3.582-8,8v8c-17.645,0-32,14.355-32,32s14.355,32,32,32h16c8.822,0,16,7.178,16,16s-7.178,16-16,16h-40   c-4.418,0-8,3.582-8,8s3.582,8,8,8h24v8c0,4.418,3.582,8,8,8s8-3.582,8-8v-8c17.645,0,32-14.355,32-32S209.254,304,191.61,304z"/>
	<path style="fill:#EE9F54;" d="M287.61,304h-16c-8.822,0-16-7.178-16-16s7.178-16,16-16h40c4.418,0,8-3.582,8-8s-3.582-8-8-8h-24   v-8c0-4.418-3.582-8-8-8s-8,3.582-8,8v8c-17.645,0-32,14.355-32,32s14.355,32,32,32h16c8.822,0,16,7.178,16,16s-7.178,16-16,16h-40   c-4.418,0-8,3.582-8,8s3.582,8,8,8h24v8c0,4.418,3.582,8,8,8s8-3.582,8-8v-8c17.645,0,32-14.355,32-32S305.254,304,287.61,304z"/>
	<path style="fill:#EE9F54;" d="M383.61,304h-16c-8.822,0-16-7.178-16-16s7.178-16,16-16h40c4.418,0,8-3.582,8-8s-3.582-8-8-8h-24   v-8c0-4.418-3.582-8-8-8s-8,3.582-8,8v8c-17.645,0-32,14.355-32,32s14.355,32,32,32h16c8.822,0,16,7.178,16,16s-7.178,16-16,16h-40   c-4.418,0-8,3.582-8,8s3.582,8,8,8h24v8c0,4.418,3.582,8,8,8s8-3.582,8-8v-8c17.645,0,32-14.355,32-32S401.254,304,383.61,304z"/>
</g>















</svg>
