<?xml version="1.0" encoding="iso-8859-1"?>
<!-- Generator: Adobe Illustrator 19.0.0, SVG Export Plug-In . SVG Version: 6.00 Build 0)  -->
<svg version="1.1" id="Capa_1" xmlns="http://www.w3.org/2000/svg" xmlns:xlink="http://www.w3.org/1999/xlink" x="0px" y="0px"
	 viewBox="0 0 512 512" style="enable-background:new 0 0 512 512;" xml:space="preserve">
<g>
	<g>
		<path d="M466,240h-15v90h15c24.853,0,46-20.147,46-45C512,260.147,490.853,240,466,240z"/>
	</g>
</g>
<g>
	<g>
		<path d="M46,240c-24.853,0-46,20.147-46,45c0,24.853,21.147,45,46,45h15v-90H46z"/>
	</g>
</g>
<g>
	<g>
		<path d="M261.09,180.217C299.444,217.939,351.587,240,406,240h15v-21.866C376.72,198.747,327.364,181.266,261.09,180.217z"/>
	</g>
</g>
<g>
	<g>
		<path d="M91,158.134c0,2.703,0,24.702,0,27.134C145.045,161.422,203.553,150,256,150c52.218,0,110.684,11.303,165,35.27
			c0-2.704,0-24.704,0-27.136C375.637,138.155,323.676,120,256,120C191.792,120,140.677,136.174,91,158.134z"/>
	</g>
</g>
<g>
	<g>
		<path d="M406,270c-71.252,0-139.144-32.959-183.787-88.176c-4.547,0.445-8.93,1.013-13.299,1.597
			C200.127,232.8,157.414,270,106,270H91v75c0,90.981,74.019,167,165,167s165-76.019,165-167v-75H406z M181,270h30v30h-30V270z
			 M256,420c-26.646,0-51.519-14.355-64.937-37.471l25.957-15.059C225.077,381.372,240.019,390,256,390s30.923-8.628,38.979-22.529
			l25.957,15.059C307.519,405.645,282.646,420,256,420z M331,300h-30v-30h30V300z"/>
	</g>
</g>
<g>
	<g>
		<path d="M256,0C170.937,0,102.748,30.029,99.877,31.304L91,35.273c0,3.312,0,87.215,0,89.996C145.062,101.417,203.57,90,256,90
			c52.218,0,110.684,11.305,165,35.27c0-6.129,0-86.032,0-89.997l-8.877-3.97C409.252,30.029,341.063,0,256,0z"/>
	</g>
</g>
<g>
	<g>
		<path d="M91,218.129V240h15c32.893,0,60.765-21.365,70.8-51.14C131.069,198.775,107.57,210.794,91,218.129z"/>
	</g>
</g>
<g>
</g>
<g>
</g>
<g>
</g>
<g>
</g>
<g>
</g>
<g>
</g>
<g>
</g>
<g>
</g>
<g>
</g>
<g>
</g>
<g>
</g>
<g>
</g>
<g>
</g>
<g>
</g>
<g>
</g>
</svg>
