<svg id="Layer_3" enable-background="new 0 0 64 64" height="512" viewBox="0 0 64 64" width="512" xmlns="http://www.w3.org/2000/svg"><path d="m20 44h24v2h-24z"/><path d="m3 3h2v10h-2z"/><path d="m59 3h2v10h-2z"/><circle cx="32" cy="19" r="1"/><ellipse cx="32" cy="38" rx="1" ry="2"/><path d="m50 5h7v6h-7z"/><path d="m36.732 37.964c-.327-.091-.585-.342-.687-.666l-4.045-12.945-4.045 12.945c-.102.324-.36.575-.687.666-.329.09-.678.009-.932-.217l-6.718-5.972 2.191 10.225h10.191c-1.682 0-3-1.757-3-4s1.318-4 3-4 3 1.757 3 4-1.318 4-3 4h10.191l2.191-10.225-6.718 5.972c-.254.226-.604.308-.932.217z"/><path d="m46 7h-2v-4h-4v15h-2v-15h-2v9h-2v-9h-4v4h-2v-4h-4v15h-2v-15h-2v9h-2v-9h-2v57.424l15.574-7.329c.135-.064.28-.095.426-.095s.291.031.426.095l15.574 7.329v-57.424h-2zm.978 22.21-2.741 12.79h.763c.552 0 1 .447 1 1v4c0 .553-.448 1-1 1h-26c-.552 0-1-.447-1-1v-4c0-.553.448-1 1-1h.763l-2.741-12.79c-.09-.423.101-.856.475-1.074.373-.218.844-.172 1.168.117l7.843 6.971 4.224-13.515c-1.02-.481-1.732-1.51-1.732-2.709 0-1.654 1.346-3 3-3s3 1.346 3 3c0 1.199-.712 2.228-1.731 2.708l4.224 13.515 7.843-6.971c.324-.288.794-.334 1.168-.117.373.219.564.652.474 1.075z"/><path d="m7 5h7v6h-7z"/></svg>