<svg id="Layer_1_1_" enable-background="new 0 0 64 64" height="512" viewBox="0 0 64 64" width="512" xmlns="http://www.w3.org/2000/svg"><path d="m58 7c2.21 0 4 1.79 4 4v45c0 2.21-1.79 4-4 4h-52c-2.21 0-4-1.79-4-4v-45c0-2.21 1.79-4 4-4z" fill="#ded8d0"/><path d="m6 60h52c2.21002 0 4-1.79004 4-4v-21.64185c-9.46356 10.3537-33.47406 17.97064-60 19.3927v2.24915c0 2.20996 1.78998 4 4 4z" fill="#c9c4bd"/><g fill="#50b6cf"><path d="m21 22h8v8h-8z"/><path d="m35 22h8v8h-8z"/><path d="m49 22h8v8h-8z"/><path d="m7 35h8v8h-8z"/><path d="m21 35h8v8h-8z"/><path d="m35 35h8v8h-8z"/><path d="m49 35h8v8h-8z"/><path d="m7 48h8v8h-8z"/><path d="m21 48h8v8h-8z"/><path d="m35 48h8v8h-8z"/></g><path d="m62 17h-60v-6c0-2.20914 1.79086-4 4-4h52c2.20914 0 4 1.79086 4 4z" fill="#e34e4b"/><path d="m15 12c-1.10457 0-2-.89543-2-2v-6c0-1.10457.89543-2 2-2 1.10457 0 2 .89543 2 2v6c0 1.10457-.89543 2-2 2z" fill="#f5a947"/><path d="m26 12c-1.10457 0-2-.89543-2-2v-6c0-1.10457.89543-2 2-2 1.10457 0 2 .89543 2 2v6c0 1.10457-.89543 2-2 2z" fill="#f5a947"/><path d="m38 12c-1.10458 0-2-.89543-2-2v-6c0-1.10457.89543-2 2-2 1.10457 0 2 .89543 2 2v6c0 1.10457-.89543 2-2 2z" fill="#f5a947"/><path d="m49 12c-1.10458 0-2-.89543-2-2v-6c0-1.10457.89543-2 2-2 1.10457 0 2 .89543 2 2v6c0 1.10457-.89543 2-2 2z" fill="#f5a947"/><path d="m5.343 38h11.314v2h-11.314z" fill="#223b5a" transform="matrix(.707 -.707 .707 .707 -24.355 19.201)"/><path d="m10 33.343h2v11.314h-2z" fill="#223b5a" transform="matrix(.707 -.707 .707 .707 -24.355 19.201)"/><path d="m19.343 38h11.314v2h-11.314z" fill="#223b5a" transform="matrix(.707 -.707 .707 .707 -20.255 29.101)"/><path d="m24 33.343h2v11.314h-2z" fill="#223b5a" transform="matrix(.707 -.707 .707 .707 -20.255 29.101)"/><path d="m33.343 38h11.314v2h-11.314z" fill="#223b5a" transform="matrix(.707 -.707 .707 .707 -16.154 39)"/><path d="m38 33.343h2v11.314h-2z" fill="#223b5a" transform="matrix(.707 -.707 .707 .707 -16.154 39)"/></svg>