<svg height="512pt" viewBox="-59 0 512 512" width="512pt" xmlns="http://www.w3.org/2000/svg"><path d="m267.363281 234.476562h-49.242187v22.671876l25.230468 24.914062c10.3125 10.179688 26.871094 10.488281 36.800782.683594 9.929687-9.800782 9.613281-26.148438-.695313-36.328125zm0 0" fill="#ffc7a1"/><path d="m218.121094 257.148438v67.125c8.96875 2.847656 19.042968.917968 25.929687-5.878907 9.925781-9.800781 9.613281-26.15625-.699219-36.332031zm0 0" fill="#ffd5b3"/><path d="m88.605469 402h61.167969v-118.175781c0-2.375.964843-4.699219 2.648437-6.375l17.757813-17.683594v-25.292969h-89.992188l-15.796875 27.832032c-8.386719 14.785156-10.660156 40.007812-5.046875 56.050781zm0 0" fill="#ffd5b3"/><path d="m389.097656 0h-383.945312c-2.835938 0-5.152344 2.316406-5.152344 5.152344v225.171875c0 2.832031 2.316406 5.148437 5.152344 5.148437h165.03125v-24.792968c0-17.535157 14.328125-31.800782 31.9375-31.800782h7c4.960937 0 9 4.039063 9 9v47.597656h170.976562c2.832032 0 5.152344-2.320312 5.152344-5.152343v-225.171875c-.003906-2.835938-2.320312-5.152344-5.152344-5.152344zm0 0" fill="#e6e9ed"/><path d="m219.121094 402v-214.121094c0-5.519531-4.476563-10-10-10h-7c-18.160156 0-32.9375 14.714844-32.9375 32.800782v48.671874l-17.464844 17.390626c-1.882812 1.875-2.945312 4.425781-2.945312 7.085937v118.171875zm0 0" fill="#ffc7a1"/><path d="m109.515625 70.4375c0-20.238281-16.617187-36.640625-37.113281-36.640625-20.5 0-37.113282 16.402344-37.113282 36.640625 0 20.234375 16.613282 36.640625 37.113282 36.640625 20.496094 0 37.113281-16.40625 37.113281-36.640625zm0 0" fill="#fb8276"/><path d="m349.226562 55.625h-109.515624c-4.140626 0-7.5-3.359375-7.5-7.5 0-4.144531 3.359374-7.5 7.5-7.5h109.515624c4.140626 0 7.5 3.355469 7.5 7.5 0 4.140625-3.359374 7.5-7.5 7.5zm0 0" fill="#9ea7af"/><path d="m349.226562 84.457031h-109.515624c-4.140626 0-7.5-3.359375-7.5-7.5 0-4.144531 3.359374-7.5 7.5-7.5h109.515624c4.140626 0 7.5 3.355469 7.5 7.5 0 4.140625-3.359374 7.5-7.5 7.5zm0 0" fill="#9ea7af"/><g fill="#368c0e"><path d="m239.714844 150.53125c-1.972656 0-3.910156-.800781-5.300782-2.191406-1.398437-1.402344-2.199218-3.332032-2.199218-5.308594 0-1.972656.800781-3.902344 2.199218-5.300781 1.390626-1.402344 3.320313-2.199219 5.300782-2.199219 1.96875 0 3.910156.796875 5.300781 2.199219 1.398437 1.398437 2.199219 3.328125 2.199219 5.300781 0 1.976562-.800782 3.90625-2.199219 5.308594-1.390625 1.390625-3.332031 2.191406-5.300781 2.191406zm0 0"/><path d="m239.714844 177.179688c-1.980469 0-3.910156-.800782-5.3125-2.199219-1.386719-1.390625-2.1875-3.320313-2.1875-5.300781 0-1.96875.800781-3.910157 2.1875-5.300782 1.402344-1.398437 3.332031-2.199218 5.3125-2.199218 1.96875 0 3.898437.800781 5.300781 2.199218 1.398437 1.402344 2.199219 3.332032 2.199219 5.300782s-.800782 3.910156-2.199219 5.300781c-1.402344 1.398437-3.332031 2.199219-5.300781 2.199219zm0 0"/><path d="m239.714844 203.828125c-1.980469 0-3.910156-.796875-5.300782-2.1875-1.398437-1.398437-2.199218-3.332031-2.199218-5.3125 0-1.96875.800781-3.90625 2.199218-5.296875 1.390626-1.402344 3.320313-2.203125 5.300782-2.203125 1.96875 0 3.910156.800781 5.300781 2.203125 1.398437 1.398438 2.199219 3.328125 2.199219 5.296875 0 1.980469-.800782 3.910156-2.199219 5.3125-1.390625 1.390625-3.332031 2.1875-5.300781 2.1875zm0 0"/></g><path d="m349.226562 150.535156h-86.707031c-4.144531 0-7.5-3.359375-7.5-7.5 0-4.144531 3.355469-7.5 7.5-7.5h86.707031c4.140626 0 7.5 3.355469 7.5 7.5 0 4.140625-3.359374 7.5-7.5 7.5zm0 0" fill="#89c947"/><path d="m349.226562 177.179688h-86.707031c-4.144531 0-7.5-3.355469-7.5-7.5 0-4.140626 3.355469-7.5 7.5-7.5h86.707031c4.140626 0 7.5 3.359374 7.5 7.5 0 4.144531-3.359374 7.5-7.5 7.5zm0 0" fill="#89c947"/><path d="m349.226562 203.832031h-86.707031c-4.144531 0-7.5-3.355469-7.5-7.5s3.355469-7.5 7.5-7.5h86.707031c4.140626 0 7.5 3.355469 7.5 7.5s-3.359374 7.5-7.5 7.5zm0 0" fill="#89c947"/><path d="m99.519531 150.535156h-54.234375c-4.140625 0-7.5-3.359375-7.5-7.5 0-4.144531 3.359375-7.5 7.5-7.5h54.234375c4.140625 0 7.5 3.355469 7.5 7.5 0 4.140625-3.359375 7.5-7.5 7.5zm0 0" fill="#046699"/><path d="m99.519531 177.179688h-54.234375c-4.140625 0-7.5-3.355469-7.5-7.5 0-4.140626 3.359375-7.5 7.5-7.5h54.234375c4.140625 0 7.5 3.359374 7.5 7.5 0 4.144531-3.359375 7.5-7.5 7.5zm0 0" fill="#046699"/><path d="m99.519531 203.832031h-54.234375c-4.140625 0-7.5-3.355469-7.5-7.5s3.359375-7.5 7.5-7.5h54.234375c4.140625 0 7.5 3.355469 7.5 7.5s-3.359375 7.5-7.5 7.5zm0 0" fill="#046699"/><path d="m244.800781 435v-29.128906c0-2.832032-2.320312-5.148438-5.152343-5.148438h-178.3125c-2.835938 0-5.152344 2.316406-5.152344 5.148438v29.128906zm0 0" fill="#e6e9ed"/><path d="m260.523438 506.851562c0 2.832032-2.320313 5.148438-5.152344 5.148438h-209.761719c-2.832031 0-5.148437-2.316406-5.148437-5.148438v-67.710937c0-2.835937 2.316406-5.152344 5.148437-5.152344h209.761719c2.832031 0 5.152344 2.316407 5.152344 5.152344zm0 0" fill="#0481bf"/><path d="m77.5625 479.789062h-4.390625c-4.144531 0-7.5-3.355468-7.5-7.5 0-4.144531 3.355469-7.5 7.5-7.5h4.390625c4.140625 0 7.5 3.355469 7.5 7.5 0 4.144532-3.359375 7.5-7.5 7.5zm0 0" fill="#08375e"/></svg>